# xmcd
# Track frame offsets:
# 150
# 18486
# 44145
# 61503
# 79660
# 103462
# 120752
# 136959
# 148865
#
# Disc length: 2200 seconds
# Revision: 0
# Processed by: cddbd v1.4PL0 Copyright (c) Steve Scherf et al.
# Submitted via: VisiTrax 2.9.5.181 - For more info visit www.synapsa.com
#
DISCID=79089609
DTITLE=Johnny Madsen - Udenfor sæsonen
DYEAR=1988
DGENRE=Country
TTITLE0=Udenfor sæsonen
TTITLE1=Vest for
TTITLE2=Stjernenat
TTITLE3=Færgemanden
TTITLE4=One man band
TTITLE5=Komadibovser
TTITLE6=Langerhuse blues
TTITLE7=Tidlig mandag morgen
TTITLE8=Sanduglen og natørnen: Sang til min hjemby
EXTD=
EXTT0=
EXTT1=
EXTT2=
EXTT3=
EXTT4=
EXTT5=
EXTT6=
EXTT7=
EXTT8=
PLAYORDER=
